<svg width="189" height="152" viewBox="0 0 189 152" fill="none" xmlns="http://www.w3.org/2000/svg">
<path d="M25.2004 105.4H188.9L149.5 66.1001C147.6 29.1001 117.4 0.5 80.8004 0.5C44.2004 0.5 14.0004 29.1001 11.9004 66.1001V92.2C11.9004 99.5 17.9004 105.4 25.2004 105.4Z" fill="#D70C18"/>
<path d="M16.4007 152H71.0007L57.9007 138.9C57.3007 126.6 47.2007 117 35.0007 117C22.8007 117 12.7007 126.5 12.0007 138.9V147.6C11.9007 150 13.9007 152 16.4007 152Z" fill="#D70C18"/>
<path d="M134.3 152H188.9L175.8 138.9C175.2 126.6 165.1 117 152.9 117C140.7 117 130.6 126.5 129.9 138.9V147.6C129.9 150 131.9 152 134.3 152Z" fill="#D70C18"/>
<path d="M41.9008 69.7993C54.4008 59.2993 56.0008 40.6992 45.5008 28.1992L0.300781 66.0994C10.8008 78.5994 29.4008 80.1993 41.9008 69.7993Z" fill="white"/>
<path d="M27.6008 52.8C30.7008 50.2 31.1008 45.6 28.5008 42.5L17.3008 51.8999C19.9008 54.8999 24.5008 55.3 27.6008 52.8Z" fill="#231815"/>
</svg>
