<svg width="59" height="39" viewBox="0 0 59 39" fill="none" xmlns="http://www.w3.org/2000/svg">
<rect width="39" height="39" rx="19.5" fill="#E5251A"/>
<path d="M14.0057 25.2557C13.0284 25.2519 12.1875 25.0114 11.483 24.5341C10.7822 24.0568 10.2424 23.3655 9.86364 22.4602C9.48864 21.5549 9.30303 20.4659 9.30682 19.1932C9.30682 17.9242 9.49432 16.8428 9.86932 15.9489C10.2481 15.0549 10.7879 14.375 11.4886 13.9091C12.1932 13.4394 13.0322 13.2045 14.0057 13.2045C14.9792 13.2045 15.8163 13.4394 16.517 13.9091C17.2216 14.3788 17.7633 15.0606 18.142 15.9545C18.5208 16.8447 18.7083 17.9242 18.7045 19.1932C18.7045 20.4697 18.5152 21.5606 18.1364 22.4659C17.7614 23.3712 17.2235 24.0625 16.5227 24.5398C15.822 25.017 14.983 25.2557 14.0057 25.2557ZM14.0057 23.2159C14.6723 23.2159 15.2045 22.8807 15.6023 22.2102C16 21.5398 16.197 20.5341 16.1932 19.1932C16.1932 18.3106 16.1023 17.5758 15.9205 16.9886C15.7424 16.4015 15.4886 15.9602 15.1591 15.6648C14.8333 15.3693 14.4489 15.2216 14.0057 15.2216C13.3428 15.2216 12.8125 15.553 12.4148 16.2159C12.017 16.8788 11.8163 17.8712 11.8125 19.1932C11.8125 20.0871 11.9015 20.8333 12.0795 21.4318C12.2614 22.0265 12.517 22.4735 12.8466 22.7727C13.1761 23.0682 13.5625 23.2159 14.0057 23.2159ZM20.4588 25V23.2273L24.6009 19.392C24.9531 19.0511 25.2486 18.7443 25.4872 18.4716C25.7296 18.1989 25.9134 17.9318 26.0384 17.6705C26.1634 17.4053 26.2259 17.1193 26.2259 16.8125C26.2259 16.4716 26.1482 16.178 25.9929 15.9318C25.8376 15.6818 25.6255 15.4905 25.3565 15.358C25.0876 15.2216 24.7827 15.1534 24.4418 15.1534C24.0857 15.1534 23.7751 15.2254 23.5099 15.3693C23.2448 15.5133 23.0402 15.7197 22.8963 15.9886C22.7524 16.2576 22.6804 16.5777 22.6804 16.9489H20.3452C20.3452 16.1875 20.5175 15.5265 20.8622 14.9659C21.2069 14.4053 21.6899 13.9716 22.3111 13.6648C22.9323 13.358 23.6482 13.2045 24.4588 13.2045C25.2921 13.2045 26.0175 13.3523 26.6349 13.6477C27.2562 13.9394 27.7391 14.3447 28.0838 14.8636C28.4285 15.3826 28.6009 15.9773 28.6009 16.6477C28.6009 17.0871 28.5137 17.5208 28.3395 17.9489C28.169 18.3769 27.8641 18.8523 27.4247 19.375C26.9853 19.8939 26.366 20.517 25.5668 21.2443L23.8679 22.9091V22.9886H28.7543V25H20.4588Z" fill="white"/>
<line x1="39" y1="20.5" x2="59" y2="20.5" stroke="#E5251A"/>
</svg>
