<svg width="59" height="39" viewBox="0 0 59 39" fill="none" xmlns="http://www.w3.org/2000/svg">
<rect width="39" height="39" rx="19.5" fill="#E5251A"/>
<path d="M14.0057 25.2557C13.0284 25.2519 12.1875 25.0114 11.483 24.5341C10.7822 24.0568 10.2424 23.3655 9.86364 22.4602C9.48864 21.5549 9.30303 20.4659 9.30682 19.1932C9.30682 17.9242 9.49432 16.8428 9.86932 15.9489C10.2481 15.0549 10.7879 14.375 11.4886 13.9091C12.1932 13.4394 13.0322 13.2045 14.0057 13.2045C14.9792 13.2045 15.8163 13.4394 16.517 13.9091C17.2216 14.3788 17.7633 15.0606 18.142 15.9545C18.5208 16.8447 18.7083 17.9242 18.7045 19.1932C18.7045 20.4697 18.5152 21.5606 18.1364 22.4659C17.7614 23.3712 17.2235 24.0625 16.5227 24.5398C15.822 25.017 14.983 25.2557 14.0057 25.2557ZM14.0057 23.2159C14.6723 23.2159 15.2045 22.8807 15.6023 22.2102C16 21.5398 16.197 20.5341 16.1932 19.1932C16.1932 18.3106 16.1023 17.5758 15.9205 16.9886C15.7424 16.4015 15.4886 15.9602 15.1591 15.6648C14.8333 15.3693 14.4489 15.2216 14.0057 15.2216C13.3428 15.2216 12.8125 15.553 12.4148 16.2159C12.017 16.8788 11.8163 17.8712 11.8125 19.1932C11.8125 20.0871 11.9015 20.8333 12.0795 21.4318C12.2614 22.0265 12.517 22.4735 12.8466 22.7727C13.1761 23.0682 13.5625 23.2159 14.0057 23.2159ZM24.7599 25.1591C23.9115 25.1591 23.1558 25.0133 22.4929 24.7216C21.8338 24.4261 21.313 24.0208 20.9304 23.5057C20.5516 22.9867 20.3565 22.3883 20.3452 21.7102H22.8224C22.8376 21.9943 22.9304 22.2443 23.1009 22.4602C23.2751 22.6723 23.5062 22.8371 23.794 22.9545C24.0819 23.072 24.4058 23.1307 24.7656 23.1307C25.1406 23.1307 25.4721 23.0644 25.7599 22.9318C26.0478 22.7992 26.2732 22.6155 26.4361 22.3807C26.599 22.1458 26.6804 21.875 26.6804 21.5682C26.6804 21.2576 26.5933 20.983 26.419 20.7443C26.2486 20.5019 26.0024 20.3125 25.6804 20.1761C25.3622 20.0398 24.9834 19.9716 24.544 19.9716H23.4588V18.1648H24.544C24.9152 18.1648 25.2429 18.1004 25.527 17.9716C25.8149 17.8428 26.0384 17.6648 26.1974 17.4375C26.3565 17.2064 26.4361 16.9375 26.4361 16.6307C26.4361 16.339 26.366 16.0833 26.2259 15.8636C26.0895 15.6402 25.8963 15.4659 25.6463 15.3409C25.4001 15.2159 25.1122 15.1534 24.7827 15.1534C24.4493 15.1534 24.1444 15.214 23.8679 15.3352C23.5914 15.4527 23.3698 15.6212 23.2031 15.8409C23.0365 16.0606 22.9474 16.3182 22.9361 16.6136H20.5781C20.5895 15.9432 20.7808 15.3523 21.152 14.8409C21.5232 14.3295 22.0232 13.9299 22.652 13.642C23.2846 13.3504 23.9986 13.2045 24.794 13.2045C25.5971 13.2045 26.2997 13.3504 26.902 13.642C27.5043 13.9337 27.9721 14.3277 28.3054 14.8239C28.6425 15.3163 28.8092 15.8693 28.8054 16.483C28.8092 17.1345 28.6065 17.678 28.1974 18.1136C27.7921 18.5492 27.2637 18.8258 26.6122 18.9432V19.0341C27.4683 19.1439 28.1198 19.4413 28.5668 19.9261C29.0175 20.4072 29.241 21.0095 29.2372 21.733C29.241 22.3958 29.0497 22.9848 28.6634 23.5C28.2808 24.0152 27.7524 24.4205 27.0781 24.7159C26.4039 25.0114 25.6312 25.1591 24.7599 25.1591Z" fill="white"/>
<line x1="39" y1="20.5" x2="59" y2="20.5" stroke="#E5251A"/>
</svg>
