<svg width="59" height="39" viewBox="0 0 59 39" fill="none" xmlns="http://www.w3.org/2000/svg">
<rect width="39" height="39" rx="19.5" fill="#E5251A"/>
<path d="M14.0057 25.2557C13.0284 25.2519 12.1875 25.0114 11.483 24.5341C10.7822 24.0568 10.2424 23.3655 9.86364 22.4602C9.48864 21.5549 9.30303 20.4659 9.30682 19.1932C9.30682 17.9242 9.49432 16.8428 9.86932 15.9489C10.2481 15.0549 10.7879 14.375 11.4886 13.9091C12.1932 13.4394 13.0322 13.2045 14.0057 13.2045C14.9792 13.2045 15.8163 13.4394 16.517 13.9091C17.2216 14.3788 17.7633 15.0606 18.142 15.9545C18.5208 16.8447 18.7083 17.9242 18.7045 19.1932C18.7045 20.4697 18.5152 21.5606 18.1364 22.4659C17.7614 23.3712 17.2235 24.0625 16.5227 24.5398C15.822 25.017 14.983 25.2557 14.0057 25.2557ZM14.0057 23.2159C14.6723 23.2159 15.2045 22.8807 15.6023 22.2102C16 21.5398 16.197 20.5341 16.1932 19.1932C16.1932 18.3106 16.1023 17.5758 15.9205 16.9886C15.7424 16.4015 15.4886 15.9602 15.1591 15.6648C14.8333 15.3693 14.4489 15.2216 14.0057 15.2216C13.3428 15.2216 12.8125 15.553 12.4148 16.2159C12.017 16.8788 11.8163 17.8712 11.8125 19.1932C11.8125 20.0871 11.9015 20.8333 12.0795 21.4318C12.2614 22.0265 12.517 22.4735 12.8466 22.7727C13.1761 23.0682 13.5625 23.2159 14.0057 23.2159ZM24.7088 25.1591C23.9058 25.1591 23.1899 25.0114 22.5611 24.7159C21.9361 24.4205 21.4399 24.0133 21.0724 23.4943C20.705 22.9754 20.5137 22.3807 20.4986 21.7102H22.8849C22.9115 22.161 23.1009 22.5265 23.4531 22.8068C23.8054 23.0871 24.224 23.2273 24.7088 23.2273C25.0952 23.2273 25.4361 23.142 25.7315 22.9716C26.0308 22.7973 26.2637 22.5568 26.4304 22.25C26.6009 21.9394 26.6861 21.5833 26.6861 21.1818C26.6861 20.7727 26.599 20.4129 26.4247 20.1023C26.2543 19.7917 26.0175 19.5492 25.7145 19.375C25.4115 19.2008 25.0649 19.1117 24.6747 19.108C24.3338 19.108 24.0024 19.178 23.6804 19.3182C23.3622 19.4583 23.1141 19.6496 22.9361 19.892L20.7486 19.5L21.2997 13.3636H28.4134V15.375H23.3281L23.027 18.2898H23.0952C23.2997 18.0019 23.6084 17.7633 24.0213 17.5739C24.4342 17.3845 24.8963 17.2898 25.4077 17.2898C26.1084 17.2898 26.7334 17.4545 27.2827 17.7841C27.8319 18.1136 28.2656 18.5663 28.5838 19.142C28.902 19.714 29.0592 20.3731 29.0554 21.1193C29.0592 21.9034 28.8774 22.6004 28.5099 23.2102C28.1463 23.8163 27.6368 24.2936 26.9815 24.642C26.33 24.9867 25.5724 25.1591 24.7088 25.1591Z" fill="white"/>
<line x1="39" y1="20.5" x2="59" y2="20.5" stroke="#E5251A"/>
</svg>
