<svg width="59" height="39" viewBox="0 0 59 39" fill="none" xmlns="http://www.w3.org/2000/svg">
<rect width="39" height="39" rx="19.5" fill="#E5251A"/>
<path d="M14.0057 25.2557C13.0284 25.2519 12.1875 25.0114 11.483 24.5341C10.7822 24.0568 10.2424 23.3655 9.86364 22.4602C9.48864 21.5549 9.30303 20.4659 9.30682 19.1932C9.30682 17.9242 9.49432 16.8428 9.86932 15.9489C10.2481 15.0549 10.7879 14.375 11.4886 13.9091C12.1932 13.4394 13.0322 13.2045 14.0057 13.2045C14.9792 13.2045 15.8163 13.4394 16.517 13.9091C17.2216 14.3788 17.7633 15.0606 18.142 15.9545C18.5208 16.8447 18.7083 17.9242 18.7045 19.1932C18.7045 20.4697 18.5152 21.5606 18.1364 22.4659C17.7614 23.3712 17.2235 24.0625 16.5227 24.5398C15.822 25.017 14.983 25.2557 14.0057 25.2557ZM14.0057 23.2159C14.6723 23.2159 15.2045 22.8807 15.6023 22.2102C16 21.5398 16.197 20.5341 16.1932 19.1932C16.1932 18.3106 16.1023 17.5758 15.9205 16.9886C15.7424 16.4015 15.4886 15.9602 15.1591 15.6648C14.8333 15.3693 14.4489 15.2216 14.0057 15.2216C13.3428 15.2216 12.8125 15.553 12.4148 16.2159C12.017 16.8788 11.8163 17.8712 11.8125 19.1932C11.8125 20.0871 11.9015 20.8333 12.0795 21.4318C12.2614 22.0265 12.517 22.4735 12.8466 22.7727C13.1761 23.0682 13.5625 23.2159 14.0057 23.2159ZM24.9247 25.1591C24.3262 25.1553 23.7486 25.0549 23.1918 24.858C22.6387 24.661 22.1425 24.3409 21.7031 23.8977C21.2637 23.4545 20.9152 22.8674 20.6577 22.1364C20.4039 21.4053 20.277 20.5076 20.277 19.4432C20.2808 18.4659 20.3925 17.5928 20.6122 16.8239C20.8357 16.0511 21.1539 15.3958 21.5668 14.858C21.9834 14.3201 22.4815 13.911 23.0611 13.6307C23.6406 13.3466 24.2902 13.2045 25.0099 13.2045C25.7865 13.2045 26.4721 13.3561 27.0668 13.6591C27.6615 13.9583 28.1387 14.3655 28.4986 14.8807C28.8622 15.3958 29.0819 15.9735 29.1577 16.6136H26.7315C26.6368 16.2083 26.438 15.8902 26.1349 15.6591C25.8319 15.428 25.4569 15.3125 25.0099 15.3125C24.2524 15.3125 23.6766 15.642 23.2827 16.3011C22.8925 16.9602 22.6937 17.8561 22.6861 18.9886H22.7656C22.9399 18.6439 23.1747 18.3504 23.4702 18.108C23.7694 17.8617 24.1084 17.6742 24.4872 17.5455C24.8698 17.4129 25.2732 17.3466 25.6974 17.3466C26.3868 17.3466 27.0005 17.5095 27.5384 17.8352C28.0762 18.1572 28.5005 18.6004 28.8111 19.1648C29.1217 19.7292 29.277 20.375 29.277 21.1023C29.277 21.8902 29.0933 22.5909 28.7259 23.2045C28.3622 23.8182 27.8527 24.2992 27.1974 24.6477C26.5459 24.9924 25.7884 25.1629 24.9247 25.1591ZM24.9134 23.2273C25.2921 23.2273 25.6312 23.1364 25.9304 22.9545C26.2296 22.7727 26.4645 22.5265 26.6349 22.2159C26.8054 21.9053 26.8906 21.5568 26.8906 21.1705C26.8906 20.7841 26.8054 20.4375 26.6349 20.1307C26.4683 19.8239 26.2372 19.5795 25.9418 19.3977C25.6463 19.2159 25.3092 19.125 24.9304 19.125C24.6463 19.125 24.383 19.178 24.1406 19.2841C23.902 19.3902 23.6918 19.5379 23.5099 19.7273C23.3319 19.9167 23.1918 20.1364 23.0895 20.3864C22.9872 20.6326 22.9361 20.8958 22.9361 21.1761C22.9361 21.5511 23.0213 21.8939 23.1918 22.2045C23.366 22.5152 23.6009 22.7633 23.8963 22.9489C24.1955 23.1345 24.5346 23.2273 24.9134 23.2273Z" fill="white"/>
<line x1="39" y1="20.5" x2="59" y2="20.5" stroke="#E5251A"/>
</svg>
