<svg width="59" height="39" viewBox="0 0 59 39" fill="none" xmlns="http://www.w3.org/2000/svg">
<rect width="39" height="39" rx="19.5" fill="#E5251A"/>
<path d="M15.5057 25.2557C14.5284 25.2519 13.6875 25.0114 12.983 24.5341C12.2822 24.0568 11.7424 23.3655 11.3636 22.4602C10.9886 21.5549 10.803 20.4659 10.8068 19.1932C10.8068 17.9242 10.9943 16.8428 11.3693 15.9489C11.7481 15.0549 12.2879 14.375 12.9886 13.9091C13.6932 13.4394 14.5322 13.2045 15.5057 13.2045C16.4792 13.2045 17.3163 13.4394 18.017 13.9091C18.7216 14.3788 19.2633 15.0606 19.642 15.9545C20.0208 16.8447 20.2083 17.9242 20.2045 19.1932C20.2045 20.4697 20.0152 21.5606 19.6364 22.4659C19.2614 23.3712 18.7235 24.0625 18.0227 24.5398C17.322 25.017 16.483 25.2557 15.5057 25.2557ZM15.5057 23.2159C16.1723 23.2159 16.7045 22.8807 17.1023 22.2102C17.5 21.5398 17.697 20.5341 17.6932 19.1932C17.6932 18.3106 17.6023 17.5758 17.4205 16.9886C17.2424 16.4015 16.9886 15.9602 16.6591 15.6648C16.3333 15.3693 15.9489 15.2216 15.5057 15.2216C14.8428 15.2216 14.3125 15.553 13.9148 16.2159C13.517 16.8788 13.3163 17.8712 13.3125 19.1932C13.3125 20.0871 13.4015 20.8333 13.5795 21.4318C13.7614 22.0265 14.017 22.4735 14.3466 22.7727C14.6761 23.0682 15.0625 23.2159 15.5057 23.2159ZM27.0213 13.3636V25H24.5611V15.6989H24.4929L21.8281 17.3693V15.1875L24.7088 13.3636H27.0213Z" fill="white"/>
<line x1="39" y1="20.5" x2="59" y2="20.5" stroke="#E5251A"/>
</svg>
