<svg width="59" height="39" viewBox="0 0 59 39" fill="none" xmlns="http://www.w3.org/2000/svg">
<rect width="39" height="39" rx="19.5" fill="#E5251A"/>
<path d="M14.0057 25.2557C13.0284 25.2519 12.1875 25.0114 11.483 24.5341C10.7822 24.0568 10.2424 23.3655 9.86364 22.4602C9.48864 21.5549 9.30303 20.4659 9.30682 19.1932C9.30682 17.9242 9.49432 16.8428 9.86932 15.9489C10.2481 15.0549 10.7879 14.375 11.4886 13.9091C12.1932 13.4394 13.0322 13.2045 14.0057 13.2045C14.9792 13.2045 15.8163 13.4394 16.517 13.9091C17.2216 14.3788 17.7633 15.0606 18.142 15.9545C18.5208 16.8447 18.7083 17.9242 18.7045 19.1932C18.7045 20.4697 18.5152 21.5606 18.1364 22.4659C17.7614 23.3712 17.2235 24.0625 16.5227 24.5398C15.822 25.017 14.983 25.2557 14.0057 25.2557ZM14.0057 23.2159C14.6723 23.2159 15.2045 22.8807 15.6023 22.2102C16 21.5398 16.197 20.5341 16.1932 19.1932C16.1932 18.3106 16.1023 17.5758 15.9205 16.9886C15.7424 16.4015 15.4886 15.9602 15.1591 15.6648C14.8333 15.3693 14.4489 15.2216 14.0057 15.2216C13.3428 15.2216 12.8125 15.553 12.4148 16.2159C12.017 16.8788 11.8163 17.8712 11.8125 19.1932C11.8125 20.0871 11.9015 20.8333 12.0795 21.4318C12.2614 22.0265 12.517 22.4735 12.8466 22.7727C13.1761 23.0682 13.5625 23.2159 14.0057 23.2159ZM20.2827 22.9545V21.017L25.1406 13.3636H26.8111V16.0455H25.8224L22.7599 20.892V20.983H29.6634V22.9545H20.2827ZM25.8679 25V22.3636L25.9134 21.5057V13.3636H28.2202V25H25.8679Z" fill="white"/>
<line x1="39" y1="20.5" x2="59" y2="20.5" stroke="#E5251A"/>
</svg>
