<svg width="15" height="15" viewBox="0 0 15 15" fill="none" xmlns="http://www.w3.org/2000/svg">
<path d="M7.50733 0.298829C8.93108 0.300116 10.3225 0.723476 11.5057 1.5154C12.6889 2.30733 13.6106 3.43227 14.1545 4.74801C14.6985 6.06375 14.8402 7.51122 14.5617 8.90745C14.2831 10.3037 13.5969 11.586 12.5897 12.5923C11.5825 13.5986 10.2995 14.2837 8.903 14.561C7.50651 14.8382 6.0592 14.6953 4.74395 14.1501C3.4287 13.605 2.30459 12.6821 1.51373 11.4983C0.722871 10.3144 0.300782 8.92257 0.300781 7.49882C0.301066 6.55283 0.487644 5.61616 0.849985 4.74232C1.21233 3.86848 1.74327 3.07459 2.41248 2.40598C3.0817 1.73737 3.87614 1.20715 4.75031 0.845598C5.62447 0.484046 6.56135 0.29826 7.50733 0.298829Z" fill="white"/>
<path d="M7.68871 3.25195C8.56486 3.25275 9.42112 3.51327 10.1492 4.00061C10.8773 4.48795 11.4445 5.18022 11.7793 5.98991C12.114 6.7996 12.2012 7.69034 12.0298 8.54957C11.8584 9.40879 11.4361 10.1979 10.8163 10.8172C10.1965 11.4364 9.40695 11.858 8.54758 12.0286C7.6882 12.1993 6.79755 12.1113 5.98817 11.7758C5.17878 11.4404 4.48702 10.8725 4.00034 10.1439C3.51365 9.41535 3.25391 8.55887 3.25391 7.68272C3.25408 7.10057 3.3689 6.52416 3.59188 5.98641C3.81486 5.44866 4.14159 4.96011 4.55342 4.54866C4.96524 4.13721 5.45413 3.81092 5.99207 3.58843C6.53002 3.36593 7.10656 3.2516 7.68871 3.25195Z" fill="#CC3D2B"/>
<path d="M5.83789 7.68116C5.83732 8.04638 5.94513 8.40355 6.1476 8.70751C6.35007 9.01146 6.63813 9.24855 6.97536 9.38875C7.31259 9.52895 7.68378 9.56597 8.04206 9.49514C8.40034 9.42431 8.72956 9.24881 8.98807 8.99083C9.24659 8.73286 9.42282 8.40399 9.4944 8.04586C9.56597 7.68772 9.52972 7.31641 9.39022 6.97889C9.25072 6.64136 9.01428 6.3528 8.71075 6.1497C8.40721 5.9466 8.05027 5.83808 7.68505 5.83789C7.19584 5.83789 6.72654 6.03198 6.38025 6.37755C6.03397 6.72312 5.83891 7.19195 5.83789 7.68116Z" fill="white"/>
</svg>
