<svg width="52" height="52" viewBox="0 0 52 52" fill="none" xmlns="http://www.w3.org/2000/svg">
<path d="M25.8499 0.439455C30.8668 0.44341 35.7699 1.93452 39.9393 4.72461C44.1088 7.51471 47.3573 11.4786 49.2745 16.1147C51.1916 20.7509 51.6912 25.851 50.71 30.771C49.7289 35.691 47.311 40.2098 43.7621 43.7559C40.2133 47.3019 35.6928 49.7161 30.772 50.6934C25.8513 51.6707 20.7512 51.1674 16.1166 49.2466C11.482 47.3258 7.521 44.074 4.73419 39.9023C1.94738 35.7307 0.459962 30.8264 0.459961 25.8096C0.461274 22.4766 1.11901 19.1764 2.39569 16.0977C3.67237 13.0189 5.54296 10.222 7.90063 7.86621C10.2583 5.51039 13.0569 3.64193 16.1367 2.36768C19.2164 1.09343 22.517 0.438142 25.8499 0.439455Z" fill="#CC3D2B"/>
<path d="M11.1699 25.8101C11.166 28.7119 12.0227 31.55 13.6318 33.9648C15.241 36.3797 17.5301 38.2628 20.2098 39.3765C22.8894 40.4902 25.8392 40.7842 28.686 40.2212C31.5327 39.6582 34.1486 38.2637 36.2026 36.2139C38.2566 34.164 39.6566 31.5512 40.2254 28.7056C40.7942 25.86 40.5062 22.9095 39.398 20.2275C38.2898 17.5456 36.4111 15.2527 33.9995 13.6387C31.5879 12.0246 28.7518 11.1621 25.8499 11.1602C21.9617 11.1601 18.2324 12.7027 15.4802 15.4492C12.7281 18.1958 11.1779 21.9219 11.1699 25.8101Z" fill="white"/>
</svg>
